<svg width="89" height="30" viewBox="0 0 89 30" fill="none" xmlns="http://www.w3.org/2000/svg">
<path d="M8 23H4.4V11.8H0.2V9H12.2V11.8H8V23ZM17.5063 14.7C16.9729 14.7 16.7063 14.9667 16.7063 15.5V16.6H20.1063V15.5C20.1063 14.9667 19.8396 14.7 19.3063 14.7H17.5063ZM23.2063 22.8C20.6329 23.0667 18.2996 23.2 16.2063 23.2C15.2996 23.2 14.5729 22.9267 14.0263 22.38C13.4796 21.8333 13.2063 21.1067 13.2063 20.2V15.4C13.2063 14.4 13.4863 13.62 14.0463 13.06C14.6196 12.4867 15.4063 12.2 16.4063 12.2H20.4063C21.4063 12.2 22.1863 12.4867 22.7463 13.06C23.3196 13.62 23.6063 14.4 23.6063 15.4V19.1H16.7063V19.9C16.7063 20.1 16.7729 20.2667 16.9063 20.4C17.0396 20.5333 17.2063 20.6 17.4062 20.6C18.7263 20.6 20.6596 20.5 23.2063 20.3V22.8ZM30.5984 20.4C31.3051 20.4 32.1051 20.2667 32.9984 20V18.8H30.0984C29.8984 18.8 29.7318 18.8667 29.5984 19C29.4651 19.1333 29.3984 19.3 29.3984 19.5V19.7C29.3984 19.9 29.4651 20.0667 29.5984 20.2C29.7318 20.3333 29.8984 20.4 30.0984 20.4H30.5984ZM26.8984 12.6C29.3384 12.3333 31.5384 12.2 33.4984 12.2C34.4051 12.2 35.1318 12.4733 35.6784 13.02C36.2251 13.5667 36.4984 14.2933 36.4984 15.2V23H33.3984L33.1984 22C32.5718 22.4133 31.9251 22.72 31.2584 22.92C30.6051 23.1067 30.0518 23.2 29.5984 23.2H28.8984C27.9918 23.2 27.2651 22.9267 26.7184 22.38C26.1718 21.8333 25.8984 21.1067 25.8984 20.2V19.3C25.8984 18.3933 26.1718 17.6667 26.7184 17.12C27.2651 16.5733 27.9918 16.3 28.8984 16.3H32.9984V15.5C32.9984 15.3 32.9318 15.1333 32.7984 15C32.6651 14.8667 32.4984 14.8 32.2984 14.8C31.4318 14.8 30.4718 14.84 29.4184 14.92C28.3784 15 27.5384 15.06 26.8984 15.1V12.6ZM46.393 12.2C47.473 12.2 48.3063 12.6 48.893 13.4C49.5063 12.9867 50.1663 12.6867 50.873 12.5C51.593 12.3 52.233 12.2 52.793 12.2H52.993C53.8996 12.2 54.6263 12.4733 55.173 13.02C55.7196 13.5667 55.993 14.2933 55.993 15.2V23H52.493V15.8C52.493 15.6 52.4263 15.4333 52.293 15.3C52.1596 15.1667 51.993 15.1 51.793 15.1H51.693C51.093 15.1 50.3263 15.2333 49.393 15.5V23H45.893V15.8C45.893 15.6 45.8263 15.4333 45.693 15.3C45.5596 15.1667 45.393 15.1 45.193 15.1H45.093C44.493 15.1 43.7263 15.2333 42.793 15.5V23H39.293V12.4H42.393L42.593 13.4C43.2196 12.9867 43.8596 12.6867 44.513 12.5C45.1796 12.3 45.7396 12.2 46.193 12.2H46.393Z" fill="#E6E6E6"/>
<path d="M69.0456 10.775H64.9706V11.275H66.5956V11.775H68.7456V12.15H66.3206V12.275H66.6206V12.775H65.9956V12.9H65.9456V13.025H65.3206V13.525H66.4956V13.65H66.5456V13.775H66.2706V14.15H66.0956V14.275H66.9206V14.775H64.9206V15.275H65.6456V15.65H66.0456V16.15H66.0956V16.65H65.8956V17.275H66.1206V17.525H65.9706V17.9H65.9456V18.025H65.7456V18.525H65.9706V18.775H65.9456V20.275H65.9706V20.775H66.3956V21.275H66.0456V21.525H65.9456V21.775H66.2456V22.275H65.8206V22.4H66.4456V22.65H66.6706V22.775H66.4706V23.15H66.3706V23.325C66.3706 23.3583 66.3623 23.3917 66.3456 23.425C66.3456 23.4583 66.3373 23.4917 66.3206 23.525H65.6956C65.6789 23.6083 65.6289 23.6917 65.5456 23.775H66.2456C66.1789 23.8417 66.1289 23.8833 66.0956 23.9H64.6706C64.5873 23.9667 64.4706 24 64.3206 24H59.2206C59.0706 24 58.9539 23.9667 58.8706 23.9H60.2956C60.2289 23.8833 60.1789 23.8417 60.1456 23.775H59.4456C59.3623 23.6917 59.3123 23.6083 59.2956 23.525H59.9456C59.9289 23.475 59.9206 23.4083 59.9206 23.325V23.15H60.0206V22.775H60.2206V22.65H59.9956V22.4H59.3706V22.275H59.7956V21.775H59.4956V21.525H59.5956V21.275H59.9456V20.775H59.5206V20.275H59.4956V18.775H59.5206V18.525H59.2956V18.025H59.4956V17.9H59.5206V17.525H59.6706V17.275H59.4456V16.65H59.6456V16.15H59.5956V15.65H59.1956V15.275H58.4706V14.775H60.4706V14.275H59.6456V14.15H59.8206V13.775H60.0956V13.65H60.0456V13.525H58.8706V13.025H59.4956V12.9H59.5456V12.775H60.1706V12.275H59.8706V12.15H62.2956V11.775H60.1456V11.275H58.5206V10.775H62.5956V10.65H60.0456V10.275H60.0206V9.9H59.5706V9.775H61.0956V9.525H59.9456V9.025H60.0456V8.65H59.3456V8.15H59.4706V7.9H59.3956V7.65H59.5956V7.525H59.3706V7.175C59.3706 7.09167 59.3873 7 59.4206 6.9H59.5456C59.6623 6.63333 59.8706 6.5 60.1706 6.5H65.2706C65.5706 6.5 65.7789 6.63333 65.8956 6.9H65.7706C65.8039 7 65.8206 7.09167 65.8206 7.175V7.525H66.0456V7.65H65.8456V7.9H65.9206V8.15H65.7956V8.65H66.4956V9.025H66.3956V9.525H67.5456V9.775H66.0206V9.9H66.4706V10.275H66.4956V10.65H69.0456V10.775ZM87.1497 15.15V15.65H87.6247V16.025H87.0997V16.15H84.6997V16.4H84.7997V16.9H84.0997V17.15H83.4997V17.65H85.1747C85.1747 17.7167 85.1747 17.7833 85.1747 17.85C85.1747 17.9 85.1664 17.9583 85.1497 18.025H83.2747C83.2747 18.075 83.2664 18.1167 83.2497 18.15H83.1997L83.1247 18.65H86.4997V18.775H85.0497C85.0497 18.7917 85.0414 18.8083 85.0247 18.825C85.0247 18.8417 85.0247 18.8667 85.0247 18.9H84.8747C84.858 18.9667 84.8414 19.0333 84.8247 19.1C84.808 19.15 84.7914 19.2083 84.7747 19.275H84.3997L84.2497 19.775H84.9747L84.8997 20.025H84.3997L84.2997 20.275H84.4247C84.3914 20.3583 84.3497 20.4417 84.2997 20.525C84.2497 20.6083 84.208 20.6917 84.1747 20.775H83.6997C83.6497 20.8583 83.5997 20.9417 83.5497 21.025C83.4997 21.1083 83.4414 21.1917 83.3747 21.275H83.7997C83.733 21.3583 83.6664 21.4417 83.5997 21.525C83.5497 21.6083 83.4914 21.6917 83.4247 21.775H83.5497C83.533 21.7917 83.5164 21.8083 83.4997 21.825C83.483 21.8417 83.4664 21.8667 83.4497 21.9H83.3497C83.333 21.9167 83.308 21.9333 83.2747 21.95C83.258 21.9667 83.2414 21.9917 83.2247 22.025L83.2997 22.15H83.1997L83.2997 22.275H83.9247L84.2747 22.775H84.3997L84.7497 23.275H83.5747L83.9247 23.775H84.3497L84.5247 24.025H84.7497L85.0997 24.525H85.1747L85.2747 24.65H84.9497L85.0997 24.85C85.0997 24.8667 85.108 24.8833 85.1247 24.9H85.2247C85.2247 24.9167 85.2247 24.9333 85.2247 24.95C85.2414 24.9667 85.2497 24.9917 85.2497 25.025H85.1997V25.075C85.233 25.2583 85.1747 25.4083 85.0247 25.525H83.9497C83.883 25.5917 83.783 25.625 83.6497 25.625H78.7497C78.6497 25.625 78.558 25.6083 78.4747 25.575C78.3914 25.5583 78.3164 25.5417 78.2497 25.525H79.2997C79.1664 25.4583 79.0497 25.375 78.9497 25.275C78.8664 25.1917 78.7997 25.1167 78.7497 25.05L78.7247 25.025H78.7997L78.6997 24.9H78.5997L78.3997 24.65H78.7247L78.6247 24.525H78.5247L78.2497 24.175C77.7997 24.225 77.3164 24.25 76.7997 24.25C75.9164 24.25 75.083 24.175 74.2997 24.025H74.0747C73.908 23.9917 73.733 23.9583 73.5497 23.925C73.383 23.875 73.2247 23.825 73.0747 23.775H72.6497C72.433 23.7083 72.2164 23.6333 71.9997 23.55C71.783 23.4667 71.5747 23.375 71.3747 23.275H72.5247C72.3747 23.1917 72.2247 23.1083 72.0747 23.025C71.9414 22.9417 71.808 22.8583 71.6747 22.775H71.5497C71.433 22.6917 71.3247 22.6083 71.2247 22.525C71.1247 22.4417 71.0247 22.3583 70.9247 22.275H70.2997L70.1497 22.15H70.2747C70.2247 22.1167 70.1747 22.075 70.1247 22.025C70.0914 21.975 70.058 21.9333 70.0247 21.9H70.1247L69.9997 21.775H69.8747C69.808 21.6917 69.7414 21.6083 69.6747 21.525C69.608 21.4417 69.5414 21.3583 69.4747 21.275H69.0497C68.9997 21.1917 68.9497 21.1083 68.8997 21.025C68.8497 20.9417 68.7997 20.8583 68.7497 20.775H69.2247C69.1747 20.6917 69.1247 20.6083 69.0747 20.525C69.0414 20.4417 69.008 20.3583 68.9747 20.275H68.8497C68.833 20.2417 68.8164 20.2 68.7997 20.15C68.783 20.1 68.7664 20.0583 68.7497 20.025H69.2247L69.1247 19.775H68.3997L68.2497 19.275H68.3747L68.2997 18.9H69.1247C69.108 18.8667 69.0997 18.825 69.0997 18.775H66.2997C66.283 18.7417 66.2747 18.7 66.2747 18.65H70.0247L69.9497 18.15H68.0497C68.0497 18.1167 68.0414 18.0917 68.0247 18.075C68.0247 18.0583 68.0247 18.0417 68.0247 18.025H65.1497C65.133 17.9583 65.1247 17.9 65.1247 17.85C65.1247 17.7833 65.1164 17.7167 65.0997 17.65H69.1247V17.15H67.2747V16.9H67.6747V16.4H68.1997V16.15H69.5747C69.5747 16.1 69.5664 16.0583 69.5497 16.025H70.1497V15.65H72.4997V15.15H71.5497V14.65H66.4497V14.15H70.8247V13.775H68.3997V13.65H68.1747V13.15H67.9247V13.1C67.9247 13.0167 67.9247 12.9417 67.9247 12.875C67.9247 12.7917 67.933 12.7167 67.9497 12.65H68.2497C68.2497 12.6 68.258 12.5583 68.2747 12.525H67.3497C67.3497 12.4583 67.3497 12.4 67.3497 12.35C67.3664 12.2833 67.383 12.2167 67.3997 12.15H69.0497L69.1247 11.775H67.1497C67.1664 11.6917 67.1914 11.6083 67.2247 11.525C67.2414 11.4417 67.258 11.3583 67.2747 11.275H67.1997C67.2164 11.2083 67.233 11.15 67.2497 11.1C67.2664 11.0333 67.283 10.9667 67.2997 10.9H69.2247L69.3747 10.525H70.3497L70.5747 10.025H68.9997L69.0497 9.9H69.0997L69.3247 9.525H69.1997C69.2997 9.35833 69.4164 9.19167 69.5497 9.025H68.7497C68.7664 8.99167 68.7997 8.95 68.8497 8.9H68.1997L68.4247 8.65H68.8497L69.0997 8.4H70.1247L70.5747 8.025H69.0747C69.158 7.95833 69.2414 7.9 69.3247 7.85C69.408 7.78333 69.4997 7.71667 69.5997 7.65H70.7247L70.9247 7.525H71.3497L72.0497 7.15H72.7497C72.8497 7.1 72.9497 7.05833 73.0497 7.025C73.1497 6.975 73.2497 6.93333 73.3497 6.9H73.7497C74.383 6.66667 75.0247 6.5 75.6747 6.4H75.9247C76.558 6.3 77.2247 6.25 77.9247 6.25C78.6414 6.25 79.308 6.3 79.9247 6.4H79.6747C80.358 6.5 80.9997 6.66667 81.5997 6.9H81.1997C81.2997 6.93333 81.3997 6.975 81.4997 7.025C81.5997 7.05833 81.6997 7.1 81.7997 7.15H81.0997L81.7997 7.525H81.3497C81.383 7.54167 81.4164 7.55833 81.4497 7.575C81.4997 7.59167 81.533 7.61667 81.5497 7.65H80.4247L80.9497 8.025H82.4247L82.8747 8.4H81.8247C81.8747 8.43333 81.9164 8.475 81.9497 8.525C81.9997 8.575 82.0414 8.61667 82.0747 8.65H81.6497L81.8747 8.9H82.4997L82.6247 9.025H83.4247C83.558 9.19167 83.6747 9.35833 83.7747 9.525H83.8997L84.1247 9.9H84.0747L84.1497 10.025H85.7497L85.9747 10.525H84.9997C85.033 10.5917 85.058 10.6583 85.0747 10.725C85.0914 10.775 85.108 10.8333 85.1247 10.9H83.2247C83.2414 10.9667 83.258 11.0333 83.2747 11.1C83.2914 11.15 83.308 11.2083 83.3247 11.275H82.1747L82.2997 11.775H84.7497C84.7664 11.8417 84.7747 11.9083 84.7747 11.975C84.7747 12.025 84.783 12.0833 84.7997 12.15H84.3997C84.4164 12.2167 84.4247 12.2833 84.4247 12.35C84.4247 12.4 84.433 12.4583 84.4497 12.525H86.0497C86.0664 12.5583 86.0747 12.6 86.0747 12.65H84.2747C84.2914 12.7167 84.2997 12.7917 84.2997 12.875C84.2997 12.9417 84.308 13.0167 84.3247 13.1V13.15H83.9497C83.9497 13.2333 83.9497 13.3167 83.9497 13.4C83.9497 13.4833 83.958 13.5667 83.9747 13.65H85.3747V13.775H86.5497V14.15H84.6997V14.65H88.5247C88.5247 14.7333 88.5247 14.8167 88.5247 14.9C88.5414 14.9833 88.5497 15.0667 88.5497 15.15H87.1497ZM74.5247 11.275C74.258 11.375 74.0497 11.5417 73.8997 11.775H75.5497C75.3664 11.525 75.158 11.3583 74.9247 11.275H76.0747C75.858 11.175 75.5914 11.125 75.2747 11.125C74.9747 11.125 74.6997 11.175 74.4497 11.275H74.5247ZM81.0997 16.025C81.1164 15.9583 81.1247 15.9 81.1247 15.85C81.1247 15.7833 81.1247 15.7167 81.1247 15.65H80.6497V15.15H82.0497C82.0497 15.0667 82.0414 14.9833 82.0247 14.9C82.0247 14.8167 82.0247 14.7333 82.0247 14.65H78.1997V14.15H80.0497V13.775H78.8747V13.65H77.4747C77.458 13.5667 77.4497 13.4833 77.4497 13.4C77.4497 13.3167 77.4497 13.2333 77.4497 13.15H77.8247C77.808 13.0667 77.7997 12.9833 77.7997 12.9C77.7997 12.8 77.783 12.7167 77.7497 12.65H79.5497C79.5497 12.6167 79.5414 12.5917 79.5247 12.575C79.5247 12.5583 79.5247 12.5417 79.5247 12.525H77.9247C77.908 12.4583 77.8914 12.4 77.8747 12.35C77.858 12.2833 77.833 12.2167 77.7997 12.15H78.1997C78.1497 12.0167 78.083 11.8917 77.9997 11.775H75.8497C75.7664 11.8917 75.6997 12.0167 75.6497 12.15H73.9997C73.983 12.2167 73.958 12.2833 73.9247 12.35C73.908 12.4 73.8914 12.4583 73.8747 12.525H74.7997C74.7997 12.5417 74.7914 12.5583 74.7747 12.575C74.7747 12.5917 74.7747 12.6167 74.7747 12.65H74.4747C74.458 12.7167 74.4414 12.8 74.4247 12.9C74.4247 12.9833 74.4247 13.0667 74.4247 13.15H74.6747V13.65H74.8997V13.775H77.3247V14.15H72.9497V14.65H78.0497V15.15H78.9997V15.65H76.6497V16.025H76.0747V16.15H74.6997V16.4H74.1747V16.9H73.7747V17.15H75.6247V17.35C75.6247 17.4 75.6247 17.45 75.6247 17.5C75.6247 17.55 75.633 17.6 75.6497 17.65H71.6247C71.6247 17.7167 71.6247 17.7833 71.6247 17.85C71.6414 17.9 71.658 17.9583 71.6747 18.025H74.5747C74.5914 18.0583 74.5997 18.1 74.5997 18.15H76.5247C76.5414 18.1667 76.5497 18.1917 76.5497 18.225C76.5497 18.2583 76.558 18.2917 76.5747 18.325C76.5914 18.2917 76.5997 18.2583 76.5997 18.225C76.5997 18.1917 76.608 18.1667 76.6247 18.15H76.6997C76.6997 18.1167 76.6997 18.0917 76.6997 18.075C76.7164 18.0583 76.7247 18.0417 76.7247 18.025H78.5997L78.6747 17.65H76.9747C76.9914 17.6 76.9997 17.55 76.9997 17.5C76.9997 17.45 76.9997 17.4 76.9997 17.35V17.15H77.5997V16.9H78.2997V16.4H78.1997V16.15H80.5997V16.025H81.0997ZM79.6997 18.775C79.7497 18.725 79.783 18.6833 79.7997 18.65H72.9747C73.0247 18.7 73.058 18.7417 73.0747 18.775H75.8747C75.8914 18.7917 75.908 18.8083 75.9247 18.825C75.9414 18.8417 75.958 18.8667 75.9747 18.9H75.1497C75.333 19.0833 75.5414 19.2083 75.7747 19.275H75.6247C75.8247 19.3417 76.058 19.375 76.3247 19.375C76.5914 19.375 76.8247 19.3417 77.0247 19.275H77.3997C77.633 19.1917 77.833 19.0667 77.9997 18.9H78.1747C78.1914 18.8667 78.208 18.8417 78.2247 18.825C78.2414 18.8083 78.258 18.7917 78.2747 18.775H79.6997Z" fill="url(#paint0_linear_49_135)"/>
<defs>
<linearGradient id="paint0_linear_49_135" x1="72" y1="0" x2="72" y2="30" gradientUnits="userSpaceOnUse">
<stop stop-color="#FF543D"/>
<stop offset="1" stop-color="#760000"/>
</linearGradient>
</defs>
</svg>
