<svg width="78" height="51" viewBox="0 0 78 51" fill="none" xmlns="http://www.w3.org/2000/svg">
<path d="M27.968 12.144H17.536V13.424H21.696V14.704H27.2V15.664H20.992V15.984H21.76V17.264H20.16V17.584H20.032V17.904H18.432V19.184H21.44V19.504H21.568V19.824H20.864V20.784H20.416V21.104H22.528V22.384H17.408V23.664H19.264V24.624H20.288V25.904H20.416V27.184H19.904V28.784H20.48V29.424H20.096V30.384H20.032V30.704H19.52V31.984H20.096V32.624H20.032V36.464H20.096V37.744H21.184V39.024H20.288V39.664H20.032V40.304H20.8V41.584H19.712V41.904H21.312V42.544H21.888V42.864H21.376V43.824H21.12V44.272C21.12 44.3573 21.0987 44.4427 21.056 44.528C21.056 44.6133 21.0347 44.6987 20.992 44.784H19.392C19.3493 44.9973 19.2213 45.2107 19.008 45.424H20.8C20.6293 45.5947 20.5013 45.7013 20.416 45.744H16.768C16.5547 45.9147 16.256 46 15.872 46H2.816C2.432 46 2.13333 45.9147 1.92 45.744H5.568C5.39733 45.7013 5.26933 45.5947 5.184 45.424H3.392C3.17867 45.2107 3.05067 44.9973 3.008 44.784H4.672C4.62933 44.656 4.608 44.4853 4.608 44.272V43.824H4.864V42.864H5.376V42.544H4.8V41.904H3.2V41.584H4.288V40.304H3.52V39.664H3.776V39.024H4.672V37.744H3.584V36.464H3.52V32.624H3.584V31.984H3.008V30.704H3.52V30.384H3.584V29.424H3.968V28.784H3.392V27.184H3.904V25.904H3.776V24.624H2.752V23.664H0.896V22.384H6.016V21.104H3.904V20.784H4.352V19.824H5.056V19.504H4.928V19.184H1.92V17.904H3.52V17.584H3.648V17.264H5.248V15.984H4.48V15.664H10.688V14.704H5.184V13.424H1.024V12.144H11.456V11.824H4.928V10.864H4.864V9.904H3.712V9.584H7.616V8.944H4.672V7.664H4.928V6.704H3.136V5.424H3.456V4.784H3.264V4.144H3.776V3.824H3.2V2.928C3.2 2.71466 3.24267 2.48 3.328 2.224H3.648C3.94667 1.54133 4.48 1.2 5.248 1.2H18.304C19.072 1.2 19.6053 1.54133 19.904 2.224H19.584C19.6693 2.48 19.712 2.71466 19.712 2.928V3.824H20.288V4.144H19.776V4.784H19.968V5.424H19.648V6.704H21.44V7.664H21.184V8.944H24.128V9.584H20.224V9.904H21.376V10.864H21.44V11.824H27.968V12.144ZM74.3145 23.344V24.624H75.5305V25.584H74.1865V25.904H68.0425V26.544H68.2985V27.824H66.5065V28.464H64.9705V29.744H69.2585C69.2585 29.9147 69.2585 30.0853 69.2585 30.256C69.2585 30.384 69.2372 30.5333 69.1945 30.704H64.3945C64.3945 30.832 64.3732 30.9387 64.3305 31.024H64.2025L64.0105 32.304H72.6505V32.624H68.9385C68.9385 32.6667 68.9172 32.7093 68.8745 32.752C68.8745 32.7947 68.8745 32.8587 68.8745 32.944H68.4905C68.4478 33.1147 68.4052 33.2853 68.3625 33.456C68.3198 33.584 68.2772 33.7333 68.2345 33.904H67.2745L66.8905 35.184H68.7465L68.5545 35.824H67.2745L67.0185 36.464H67.3385C67.2532 36.6773 67.1465 36.8907 67.0185 37.104C66.8905 37.3173 66.7838 37.5307 66.6985 37.744H65.4825C65.3545 37.9573 65.2265 38.1707 65.0985 38.384C64.9705 38.5973 64.8212 38.8107 64.6505 39.024H65.7385C65.5678 39.2373 65.3972 39.4507 65.2265 39.664C65.0985 39.8773 64.9492 40.0907 64.7785 40.304H65.0985C65.0558 40.3467 65.0132 40.3893 64.9705 40.432C64.9278 40.4747 64.8852 40.5387 64.8425 40.624H64.5865C64.5438 40.6667 64.4798 40.7093 64.3945 40.752C64.3518 40.7947 64.3092 40.8587 64.2665 40.944L64.4585 41.264H64.2025L64.4585 41.584H66.0585L66.9545 42.864H67.2745L68.1705 44.144H65.1625L66.0585 45.424H67.1465L67.5945 46.064H68.1705L69.0665 47.344H69.2585L69.5145 47.664H68.6825L69.0665 48.176C69.0665 48.2187 69.0878 48.2613 69.1305 48.304H69.3865C69.3865 48.3467 69.3865 48.3893 69.3865 48.432C69.4292 48.4747 69.4505 48.5387 69.4505 48.624H69.3225V48.752C69.4078 49.2213 69.2585 49.6053 68.8745 49.904H66.1225C65.9518 50.0747 65.6958 50.16 65.3545 50.16H52.8105C52.5545 50.16 52.3198 50.1173 52.1065 50.032C51.8932 49.9893 51.7012 49.9467 51.5305 49.904H54.2185C53.8772 49.7333 53.5785 49.52 53.3225 49.264C53.1092 49.0507 52.9385 48.8587 52.8105 48.688L52.7465 48.624H52.9385L52.6825 48.304H52.4265L51.9145 47.664H52.7465L52.4905 47.344H52.2345L51.5305 46.448C50.3785 46.576 49.1412 46.64 47.8185 46.64C45.5572 46.64 43.4238 46.448 41.4185 46.064H40.8425C40.4158 45.9787 39.9678 45.8933 39.4985 45.808C39.0718 45.68 38.6665 45.552 38.2825 45.424H37.1945C36.6398 45.2533 36.0852 45.0613 35.5305 44.848C34.9758 44.6347 34.4425 44.4 33.9305 44.144H36.8745C36.4905 43.9307 36.1065 43.7173 35.7225 43.504C35.3812 43.2907 35.0398 43.0773 34.6985 42.864H34.3785C34.0798 42.6507 33.8025 42.4373 33.5465 42.224C33.2905 42.0107 33.0345 41.7973 32.7785 41.584H31.1785L30.7945 41.264H31.1145C30.9865 41.1787 30.8585 41.072 30.7305 40.944C30.6452 40.816 30.5598 40.7093 30.4745 40.624H30.7305L30.4105 40.304H30.0905C29.9198 40.0907 29.7492 39.8773 29.5785 39.664C29.4078 39.4507 29.2372 39.2373 29.0665 39.024H27.9785C27.8505 38.8107 27.7225 38.5973 27.5945 38.384C27.4665 38.1707 27.3385 37.9573 27.2105 37.744H28.4265C28.2985 37.5307 28.1705 37.3173 28.0425 37.104C27.9572 36.8907 27.8718 36.6773 27.7865 36.464H27.4665C27.4238 36.3787 27.3812 36.272 27.3385 36.144C27.2958 36.016 27.2532 35.9093 27.2105 35.824H28.4265L28.1705 35.184H26.3145L25.9305 33.904H26.2505L26.0585 32.944H28.1705C28.1278 32.8587 28.1065 32.752 28.1065 32.624H20.9385C20.8958 32.5387 20.8745 32.432 20.8745 32.304H30.4745L30.2825 31.024H25.4185C25.4185 30.9387 25.3972 30.8747 25.3545 30.832C25.3545 30.7893 25.3545 30.7467 25.3545 30.704H17.9945C17.9518 30.5333 17.9305 30.384 17.9305 30.256C17.9305 30.0853 17.9092 29.9147 17.8665 29.744H28.1705V28.464H23.4345V27.824H24.4585V26.544H25.8025V25.904H29.3225C29.3225 25.776 29.3012 25.6693 29.2585 25.584H30.7945V24.624H36.8105V23.344H34.3785V22.064H21.3225V20.784H32.5225V19.824H26.3145V19.504H25.7385V18.224H25.0985V18.096C25.0985 17.8827 25.0985 17.6907 25.0985 17.52C25.0985 17.3067 25.1198 17.1147 25.1625 16.944H25.9305C25.9305 16.816 25.9518 16.7093 25.9945 16.624H23.6265C23.6265 16.4533 23.6265 16.304 23.6265 16.176C23.6692 16.0053 23.7118 15.8347 23.7545 15.664H27.9785L28.1705 14.704H23.1145C23.1572 14.4907 23.2212 14.2773 23.3065 14.064C23.3492 13.8507 23.3918 13.6373 23.4345 13.424H23.2425C23.2852 13.2533 23.3278 13.104 23.3705 12.976C23.4132 12.8053 23.4558 12.6347 23.4985 12.464H28.4265L28.8105 11.504H31.3065L31.8825 10.224H27.8505L27.9785 9.904H28.1065L28.6825 8.944H28.3625C28.6185 8.51733 28.9172 8.09066 29.2585 7.664H27.2105C27.2532 7.57867 27.3385 7.472 27.4665 7.344H25.8025L26.3785 6.704H27.4665L28.1065 6.064H30.7305L31.8825 5.104H28.0425C28.2558 4.93333 28.4692 4.784 28.6825 4.656C28.8958 4.48533 29.1305 4.31466 29.3865 4.144H32.2665L32.7785 3.824H33.8665L35.6585 2.864H37.4505C37.7065 2.736 37.9625 2.62933 38.2185 2.544C38.4745 2.416 38.7305 2.30933 38.9865 2.224H40.0105C41.6318 1.62667 43.2745 1.2 44.9385 0.943996H45.5785C47.1998 0.687997 48.9065 0.559998 50.6985 0.559998C52.5332 0.559998 54.2398 0.687997 55.8185 0.943996H55.1785C56.9278 1.2 58.5705 1.62667 60.1065 2.224H59.0825C59.3385 2.30933 59.5945 2.416 59.8505 2.544C60.1065 2.62933 60.3625 2.736 60.6185 2.864H58.8265L60.6185 3.824H59.4665C59.5518 3.86666 59.6372 3.90933 59.7225 3.952C59.8505 3.99467 59.9358 4.05866 59.9785 4.144H57.0985L58.4425 5.104H62.2185L63.3705 6.064H60.6825C60.8105 6.14933 60.9172 6.256 61.0025 6.384C61.1305 6.512 61.2372 6.61866 61.3225 6.704H60.2345L60.8105 7.344H62.4105L62.7305 7.664H64.7785C65.1198 8.09066 65.4185 8.51733 65.6745 8.944H65.9945L66.5705 9.904H66.4425L66.6345 10.224H70.7305L71.3065 11.504H68.8105C68.8958 11.6747 68.9598 11.8453 69.0025 12.016C69.0452 12.144 69.0878 12.2933 69.1305 12.464H64.2665C64.3092 12.6347 64.3518 12.8053 64.3945 12.976C64.4372 13.104 64.4798 13.2533 64.5225 13.424H61.5785L61.8985 14.704H68.1705C68.2132 14.8747 68.2345 15.0453 68.2345 15.216C68.2345 15.344 68.2558 15.4933 68.2985 15.664H67.2745C67.3172 15.8347 67.3385 16.0053 67.3385 16.176C67.3385 16.304 67.3598 16.4533 67.4025 16.624H71.4985C71.5412 16.7093 71.5625 16.816 71.5625 16.944H66.9545C66.9972 17.1147 67.0185 17.3067 67.0185 17.52C67.0185 17.6907 67.0398 17.8827 67.0825 18.096V18.224H66.1225C66.1225 18.4373 66.1225 18.6507 66.1225 18.864C66.1225 19.0773 66.1438 19.2907 66.1865 19.504H69.7705V19.824H72.7785V20.784H68.0425V22.064H77.8345C77.8345 22.2773 77.8345 22.4907 77.8345 22.704C77.8772 22.9173 77.8985 23.1307 77.8985 23.344H74.3145ZM41.9945 13.424C41.3118 13.68 40.7785 14.1067 40.3945 14.704H44.6185C44.1492 14.064 43.6158 13.6373 43.0185 13.424H45.9625C45.4078 13.168 44.7252 13.04 43.9145 13.04C43.1465 13.04 42.4425 13.168 41.8025 13.424H41.9945ZM58.8265 25.584C58.8692 25.4133 58.8905 25.264 58.8905 25.136C58.8905 24.9653 58.8905 24.7947 58.8905 24.624H57.6745V23.344H61.2585C61.2585 23.1307 61.2372 22.9173 61.1945 22.704C61.1945 22.4907 61.1945 22.2773 61.1945 22.064H51.4025V20.784H56.1385V19.824H53.1305V19.504H49.5465C49.5038 19.2907 49.4825 19.0773 49.4825 18.864C49.4825 18.6507 49.4825 18.4373 49.4825 18.224H50.4425C50.3998 18.0107 50.3785 17.7973 50.3785 17.584C50.3785 17.328 50.3358 17.1147 50.2505 16.944H54.8585C54.8585 16.8587 54.8372 16.7947 54.7945 16.752C54.7945 16.7093 54.7945 16.6667 54.7945 16.624H50.6985C50.6558 16.4533 50.6132 16.304 50.5705 16.176C50.5278 16.0053 50.4638 15.8347 50.3785 15.664H51.4025C51.2745 15.3227 51.1038 15.0027 50.8905 14.704H45.3865C45.1732 15.0027 45.0025 15.3227 44.8745 15.664H40.6505C40.6078 15.8347 40.5438 16.0053 40.4585 16.176C40.4158 16.304 40.3732 16.4533 40.3305 16.624H42.6985C42.6985 16.6667 42.6772 16.7093 42.6345 16.752C42.6345 16.7947 42.6345 16.8587 42.6345 16.944H41.8665C41.8238 17.1147 41.7812 17.328 41.7385 17.584C41.7385 17.7973 41.7385 18.0107 41.7385 18.224H42.3785V19.504H42.9545V19.824H49.1625V20.784H37.9625V22.064H51.0185V23.344H53.4505V24.624H47.4345V25.584H45.9625V25.904H42.4425V26.544H41.0985V27.824H40.0745V28.464H44.8105V28.976C44.8105 29.104 44.8105 29.232 44.8105 29.36C44.8105 29.488 44.8318 29.616 44.8745 29.744H34.5705C34.5705 29.9147 34.5705 30.0853 34.5705 30.256C34.6132 30.384 34.6558 30.5333 34.6985 30.704H42.1225C42.1652 30.7893 42.1865 30.896 42.1865 31.024H47.1145C47.1572 31.0667 47.1785 31.1307 47.1785 31.216C47.1785 31.3013 47.1998 31.3867 47.2425 31.472C47.2852 31.3867 47.3065 31.3013 47.3065 31.216C47.3065 31.1307 47.3278 31.0667 47.3705 31.024H47.5625C47.5625 30.9387 47.5625 30.8747 47.5625 30.832C47.6052 30.7893 47.6265 30.7467 47.6265 30.704H52.4265L52.6185 29.744H48.2665C48.3092 29.616 48.3305 29.488 48.3305 29.36C48.3305 29.232 48.3305 29.104 48.3305 28.976V28.464H49.8665V27.824H51.6585V26.544H51.4025V25.904H57.5465V25.584H58.8265ZM55.2425 32.624C55.3705 32.496 55.4558 32.3893 55.4985 32.304H38.0265C38.1545 32.432 38.2398 32.5387 38.2825 32.624H45.4505C45.4932 32.6667 45.5358 32.7093 45.5785 32.752C45.6212 32.7947 45.6638 32.8587 45.7065 32.944H43.5945C44.0638 33.4133 44.5972 33.7333 45.1945 33.904H44.8105C45.3225 34.0747 45.9198 34.16 46.6025 34.16C47.2852 34.16 47.8825 34.0747 48.3945 33.904H49.3545C49.9518 33.6907 50.4638 33.3707 50.8905 32.944H51.3385C51.3812 32.8587 51.4238 32.7947 51.4665 32.752C51.5092 32.7093 51.5518 32.6667 51.5945 32.624H55.2425Z" fill="url(#paint0_linear_23_135)"/>
<defs>
<linearGradient id="paint0_linear_23_135" x1="36" y1="-14" x2="36" y2="62" gradientUnits="userSpaceOnUse">
<stop stop-color="#FF543D"/>
<stop offset="1" stop-color="#760000"/>
</linearGradient>
</defs>
</svg>
